<svg width="16" height="16" viewBox="0 0 16 16" fill="none" xmlns="http://www.w3.org/2000/svg">
  <defs>
    <linearGradient id="gradient" x1="0%" y1="0%" x2="100%" y2="100%">
      <stop offset="0%" style="stop-color:#00D4FF;stop-opacity:1" />
      <stop offset="100%" style="stop-color:#0066CC;stop-opacity:1" />
    </linearGradient>
  </defs>
  
  <!-- O3DE Logo simplified for 16x16 -->
  <circle cx="8" cy="8" r="7" fill="url(#gradient)" stroke="#003366" stroke-width="0.5"/>
  
  <!-- O -->
  <circle cx="5" cy="6" r="1.5" fill="none" stroke="white" stroke-width="0.8"/>
  
  <!-- 3 -->
  <path d="M8.5 4.5 C9.5 4.5 10 5 10 5.5 C10 6 9.5 6.5 9 6.5 C9.5 6.5 10 7 10 7.5 C10 8 9.5 8.5 8.5 8.5" 
        fill="none" stroke="white" stroke-width="0.8" stroke-linecap="round"/>
  
  <!-- D -->
  <path d="M11.5 4.5 L11.5 8.5 C11.5 8.5 12.5 8.5 12.5 6.5 C12.5 4.5 11.5 4.5 11.5 4.5" 
        fill="none" stroke="white" stroke-width="0.8" stroke-linecap="round"/>
  
  <!-- E -->
  <path d="M4 10.5 L4 12.5 L6 12.5 M4 11.5 L5.5 11.5 M4 10.5 L6 10.5" 
        fill="none" stroke="white" stroke-width="0.8" stroke-linecap="round"/>
</svg>